<?xml version="1.0" encoding="utf-8"?>
<!-- Generator: Adobe Illustrator 23.0.5, SVG Export Plug-In . SVG Version: 6.00 Build 0)  -->
<svg version="1.1" id="Layer_1" xmlns="http://www.w3.org/2000/svg" xmlns:xlink="http://www.w3.org/1999/xlink" x="0px" y="0px"
	 viewBox="0 0 256 171.3" style="enable-background:new 0 0 256 171.3;" xml:space="preserve">
<style type="text/css">
	.st0{fill-rule:evenodd;clip-rule:evenodd;fill:#EB5202;}
	.st1{fill:#EB5202;}
</style>
<g>
	<path class="st0" d="M245.6,100.1c0,9.3-0.4,12.1-5,19.8c-7.4,12.4-23.6,22.2-36.6,27.4c-45.7,18.2-106.5,18.1-151.3,0.2
		c-17.3-6.9-42.1-22.4-42.1-43.5c0-11.3,3.1-17.5,10.3-25.6c4.6-5.2,11.8-10.3,18.2-13.8c7.2-3.9,13.8-7,22.2-9.8
		c9.8-3.2,22.4-4.7,22.4-10.2c0-9.3-14-3.2-18.8-1.8C46,48.1,22.9,60,10.6,75.4c-16.4,20.7-13.2,42.2,5.3,60.5
		c24.3,24,73.9,35.4,106.9,35.4c25.2,0,48-2.1,71.1-9.9c16.3-5.5,29.6-11.5,42.7-22.6c8.7-7.3,19.4-19.6,19.4-34.1
		c0-8.5-0.1-10.9-3.8-19c-9.3-20.1-30.8-30.6-49.3-38.9c-3.5-1.6-23.7-8-27.1-7.9c-5.6,0.3-6.3,7.4-2.7,9.6c1,0.6,12,3.2,13.9,3.8
		c16,4.5,34.8,12.6,46.4,24.1C238.2,81.3,245.6,90.9,245.6,100.1L245.6,100.1z"/>
	<path class="st0" d="M60.2,83.1c0,7.6,0.3,10.9,5.7,17.1c0.6,0.7,0.9,1,1.6,1.7c22.8,24.9,83.4,26.4,112.7,7.2
		c4.7-3.1,9.5-7.1,12.7-12.1c4.7-7.4,4.1-16.4-0.6-23.9c-1-1.7-1.7-2.4-2.8-3.7c-3.2-4-17.3-13.7-20.9-13.7c-3.9,0-6.7,3.7-5.2,7.1
		c2,4.6,9.8,4.4,16.8,11.3c19.2,18.9-13.7,37.7-48.8,37.7c-15.7,0-26.5-0.8-40.4-6c-9.9-3.7-20.3-9.6-20.3-21.4
		c0-7.5,7.6-12.3,12.7-15.4c3.2-2,12.4-3.7,9.5-10c-4.3-9.4-20.6,5.1-25.1,9.4C64.4,71.8,60.2,78.1,60.2,83.1L60.2,83.1z"/>
	<path class="st1" d="M121.4,52.3l-2-29.3c-0.4-5.7-0.5-9.8-0.5-12.3c0-3.4,0.9-6,2.7-7.9c1.8-1.9,4.1-2.8,7-2.8
		c3.5,0,5.8,1.2,7,3.6s1.8,5.9,1.8,10.5c0,2.7-0.1,5.4-0.4,8.2l-2.6,30.1c-0.3,3.6-0.9,6.3-1.8,8.3c-0.9,1.9-2.5,2.9-4.6,2.9
		c-2.2,0-3.7-0.9-4.6-2.8C122.4,58.9,121.8,56.1,121.4,52.3L121.4,52.3z M128.2,92.5c-2.5,0-4.7-0.8-6.5-2.4
		c-1.9-1.6-2.8-3.9-2.8-6.8c0-2.5,0.9-4.7,2.7-6.4c1.8-1.8,3.9-2.6,6.5-2.6c2.6,0,4.7,0.9,6.6,2.6c1.8,1.8,2.7,3.9,2.7,6.4
		c0,2.9-0.9,5.1-2.7,6.7C132.7,91.7,130.6,92.5,128.2,92.5L128.2,92.5z"/>
</g>
</svg>
