<?xml version="1.0" encoding="utf-8"?>
<!-- Generator: Adobe Illustrator 23.0.5, SVG Export Plug-In . SVG Version: 6.00 Build 0)  -->
<svg version="1.1" id="Layer_1" xmlns="http://www.w3.org/2000/svg" xmlns:xlink="http://www.w3.org/1999/xlink" x="0px" y="0px"
	 viewBox="0 0 256 233.7" style="enable-background:new 0 0 256 233.7;" xml:space="preserve">
<style type="text/css">
	.st0{fill-rule:evenodd;clip-rule:evenodd;fill:#FFFFFF;}
	.st1{fill:#FFFFFF;}
</style>
<g>
	<path class="st0" d="M17.6,83.4h17.6c2.8-5.7,4-10,7.8-16.6C72.9,15,144.9,1.5,190.8,39.2c14.8,12.2,20.1,20.2,28.9,36.9H198
		c0.4,1.6,21.1,32,23.7,35.4c1.5,2,2.5,3.7,4,5.9c0.7,1.1,1.2,1.8,1.9,2.8c0.8,1.2,0.9,2.1,2.6,2.6c0.5-1.9,5-8.9,6.4-11.7L253,82.4
		c1.1-1.9,2.7-4.4,3.1-6.2H238c-0.8-3.6-5.4-11.9-7.1-15.2c-3.9-7.6-12.6-19.2-18.9-25.6c-6.5-6.6-17.6-14.8-25.3-19.3
		C172.5,7.9,151.8,1,134.2,1c-19.9,0-31,1.1-48.8,8.2c-12.2,4.9-32.3,17.5-41.7,28.7s-18,22.6-23,36.6
		C19.7,77.3,18.3,80.3,17.6,83.4L17.6,83.4z"/>
	<path class="st0" d="M0,160.1h20.7c4,8.4,3.6,9.4,9.4,18.6l7,10.1c3.6,4.9,14.2,15.7,19.6,19.8c1.3,0.9,2.1,1.6,3.3,2.4
		c36.7,27.6,86.7,30.2,127,7.2c14.3-8.2,28.8-21.4,38-35.1c6.3-9.4,10.6-18.1,14.4-28.7c1.7-4.7,2.7-3.6-15.5-3.6
		c-2,0-4,8.1-6.6,12.6l-7.6,12.1c-15.7,22.9-47.4,41.1-75.5,41.1h-9.8c-28.3,0-54.4-15.8-71.1-34.6c-3.3-3.8-12.7-16.9-13.9-21.9
		h19.2c-0.4-1.5-2.7-4.4-3.8-6L34,124.5c-1.2-1.8-7-10.5-8.6-11.6c-1,2-2.1,3.8-3.1,5.7L0,160.1L0,160.1z"/>
	<path class="st1" d="M101.5,70.1h59v0.1c-3.5,6.1-5.5,9.3-5.9,9.8h-15.7c2.2,2.9,3.6,6.4,4.4,10.5H160c0.2,0,0.3,0.1,0.3,0.3
		c-3.8,6.4-5.7,9.6-5.8,9.6h-10.9c-0.2,3.2-1.6,7.2-4.1,11.9c-3.4,4.7-6.6,7.7-9.7,9.1c-5.7,3.1-11.2,4.6-16.4,4.6v0.1
		c0,0.4,1.3,2.3,3.9,5.7l29.1,39.9v1.9c0,0.2-0.1,0.3-0.3,0.3h-12.8c-23.1-30.4-34.6-45.7-34.6-45.9v-9.3l0.1-0.4
		c2,0.3,4.4,0.5,7.2,0.5c12.9,0,20.9-4.8,24.1-14.3c0.5-1.4,0.7-2.8,0.7-4.3h-35c-0.2,0-0.3-0.1-0.3-0.4c3.9-6.4,5.8-9.6,5.9-9.6
		h27.9v-0.1c-1.6-3.7-4.7-6.5-9.3-8.5c-3.3-1.2-6.2-1.8-8.8-1.8H95.7v-0.4C99.4,73.3,101.4,70.1,101.5,70.1L101.5,70.1z"/>
</g>
</svg>
