<?xml version="1.0" encoding="utf-8"?>
<!-- Generator: Adobe Illustrator 23.0.5, SVG Export Plug-In . SVG Version: 6.00 Build 0)  -->
<svg version="1.1" id="Layer_1" xmlns="http://www.w3.org/2000/svg" xmlns:xlink="http://www.w3.org/1999/xlink" x="0px" y="0px"
	 viewBox="0 0 256 256" style="enable-background:new 0 0 256 256;" xml:space="preserve">
<style type="text/css">
	.st0{fill-rule:evenodd;clip-rule:evenodd;fill:#FFFFFF;}
</style>
<g>
	<polygon class="st0" points="0,23.3 11.6,23.3 11.6,256 104.7,256 104.7,232.7 34.9,232.7 34.9,23.3 197.8,23.3 197.8,69.8 
		221.1,69.8 221.1,23.3 232.7,23.3 232.7,0 0,0 	"/>
	<path class="st0" d="M151.3,116.4h81.5v116.4h-81.5V116.4L151.3,116.4z M128,256h128V93.1H128V256L128,256z"/>
	<polygon class="st0" points="58.2,116.4 104.7,116.4 104.7,93.1 58.2,93.1 	"/>
	<polygon class="st0" points="58.2,162.9 104.7,162.9 104.7,139.6 58.2,139.6 	"/>
	<polygon class="st0" points="58.2,69.8 104.7,69.8 104.7,46.5 58.2,46.5 	"/>
	<polygon class="st0" points="128,69.8 174.5,69.8 174.5,46.5 128,46.5 	"/>
	<polygon class="st0" points="58.2,209.5 104.7,209.5 104.7,186.2 58.2,186.2 	"/>
	<polygon class="st0" points="174.5,162.9 209.5,162.9 209.5,139.6 174.5,139.6 	"/>
	<polygon class="st0" points="174.5,209.5 209.5,209.5 209.5,186.2 174.5,186.2 	"/>
</g>
</svg>
