<?xml version="1.0" encoding="utf-8"?>
<!-- Generator: Adobe Illustrator 23.0.5, SVG Export Plug-In . SVG Version: 6.00 Build 0)  -->
<svg version="1.1" id="Layer_1" xmlns="http://www.w3.org/2000/svg" xmlns:xlink="http://www.w3.org/1999/xlink" x="0px" y="0px"
	 viewBox="0 0 256 256" style="enable-background:new 0 0 256 256;" xml:space="preserve">
<style type="text/css">
	.st0{fill-rule:evenodd;clip-rule:evenodd;fill:#FFFFFF;}
</style>
<g>
	<path class="st0" d="M96.2,135c0-20.6-1.7-47.5,25.3-48.8c38.5-1.9,38.2,81.8,2.8,83.5C104.3,170.6,96.2,156.1,96.2,135L96.2,135z
		 M0.3,120.8c0,39.5,8.4,73,38.1,100.4c50.8,46.8,142.7,43.8,167.9,6.2c-3.5-13-3.7-7.4-10.7-17.8c-48.8,32.7-103.3,32.8-141.8-7.4
		c-30.6-31.9-40.7-74.2-21.7-117c6.5-14.6,11.2-20.7,21.7-31.6c53.8-56.2,150.4-32.8,174.4,41.8c7.7,24,9.6,50.3-10.4,65.3
		c-14.1,10.5-47,20.5-47-22.2V63.9L152,66.4c-20.6,5,2-2.4-34.5-2.4c-49.8,0-42.6,60.3-42.6,85.3c0,25.2,32.1,64.1,85.3,28.4
		c19.6,26.7,95.9,21.4,95.9-56.9C256.1,58.8,197.3,0,135.3,0c-39.5,0-73,8.4-100.4,38.1C18.2,56.2,0.3,87.4,0.3,120.8L0.3,120.8z"/>
</g>
</svg>
