<?xml version="1.0" encoding="utf-8"?>
<!-- Generator: Adobe Illustrator 23.0.5, SVG Export Plug-In . SVG Version: 6.00 Build 0)  -->
<svg version="1.1" id="Layer_1" xmlns="http://www.w3.org/2000/svg" xmlns:xlink="http://www.w3.org/1999/xlink" x="0px" y="0px"
	 viewBox="0 0 234.1 256" style="enable-background:new 0 0 234.1 256;" xml:space="preserve">
<style type="text/css">
	.st0{fill-rule:evenodd;clip-rule:evenodd;fill:#FFFFFF;}
	.st1{fill:#FFFFFF;}
</style>
<g>
	<path class="st0" d="M11.8,186.1c0-26.9,15.6-49.8,28.9-65.6c37.8-44.7,51.7-9.8,95.6-24.1c17.6-5.7,27.3-0.7,49.7,18.2
		c24,20.3,50.3,69.3,29.1,102.5c-5.1,7.9-13.9,14.2-23.7,18c-26.6,10.3-143.8,19.8-170.6-16.3C16.6,213,11.8,195,11.8,186.1
		L11.8,186.1z M138.9,83.3c-3.6,0.4-40.9,13.6-50.6-1.5c-0.1-0.2-6.8-25-7.1-26.3c16.1-0.4,6.5-1.3,25-11.1
		c15.6,10.4,8.4,14.8,36.1,8.3L138.9,83.3L138.9,83.3z M125.7,44.5c-7.7-5.2-11.6-13.7-21.4-12.8C88.2,33.2,85,61,64.6,30.6
		c31.5,0,29.4-5.2,44.5-19.4c32,21.5,14.9,14.5,41.7,13.9C144.6,34.2,135.8,39.1,125.7,44.5L125.7,44.5z M47.9,27.8
		c0,26.1,25,12.7,25,58.3c-17.3,1.4-40,22.6-48.9,34.4c-36.7,48.7-43,135,65.6,135c46.2,0,144.5,9.3,144.5-61.1
		c0-36.6-3.5-53-32.2-81.7c-0.4-0.4-1-1-1.4-1.4l-21.4-17.5c-1.8-1.1-3.2-1.9-5.2-3.2c-5.4-3.5-2.2-0.9-6.5-4.6
		c32.6,2.7,19.3,13.4,41.7,13.9c-0.3-15.4-5.3-14.2-19.5-22.2c-0.5-0.3-1.3-0.7-1.8-1l-6.5-4.6c18,0,17.2,5.2,33.3,5.6v-11
		c-22.4-5.2-26.8-12.6-61.1,5.6c0-29.4,32.9-61.1,8.3-61.1c-11.5,0-22.5,4-29.1,1.5C121.1,8.1,126.8,0,106.3,0
		C94.9,0,95.6,14,81,16.4C80.1,16.6,47.9,15.2,47.9,27.8L47.9,27.8z"/>
	<path class="st1" d="M96.2,136.9h45.1v0.1c-2.7,4.6-4.2,7.1-4.5,7.5h-12c1.7,2.2,2.8,4.9,3.4,8H141c0.2,0,0.2,0.1,0.2,0.2
		c-2.9,4.9-4.4,7.3-4.4,7.4h-8.3c-0.2,2.5-1.2,5.5-3.2,9.1c-2.6,3.6-5.1,5.9-7.4,7c-4.4,2.4-8.5,3.6-12.5,3.6v0.1
		c0,0.3,1,1.8,2.9,4.4l22.2,30.5v1.5c0,0.1-0.1,0.2-0.2,0.2h-9.8c-17.6-23.3-26.5-35-26.5-35.1v-7.1l0.1-0.3
		c1.5,0.3,3.4,0.4,5.5,0.4c9.8,0,16-3.6,18.4-10.9c0.4-1.1,0.5-2.2,0.5-3.3H91.9c-0.2,0-0.2-0.1-0.2-0.3c2.9-4.9,4.5-7.3,4.5-7.3
		h21.3v-0.1c-1.2-2.8-3.6-5-7.1-6.5c-2.5-0.9-4.8-1.4-6.7-1.4H91.8v-0.3C94.6,139.3,96.1,136.9,96.2,136.9L96.2,136.9z"/>
</g>
</svg>
