<?xml version="1.0" encoding="utf-8"?>
<!-- Generator: Adobe Illustrator 23.0.5, SVG Export Plug-In . SVG Version: 6.00 Build 0)  -->
<svg version="1.1" id="Layer_1" xmlns="http://www.w3.org/2000/svg" xmlns:xlink="http://www.w3.org/1999/xlink" x="0px" y="0px"
	 viewBox="0 0 256 256" style="enable-background:new 0 0 256 256;" xml:space="preserve">
<style type="text/css">
	.st0{fill-rule:evenodd;clip-rule:evenodd;fill:#FFFFFF;}
</style>
<g>
	<path class="st0" d="M177.5,186.9l-14-12.6l50.2-51.8l14,12.6L177.5,186.9L177.5,186.9z M106.9,98.9L138.3,66l51.8,50.3l-31.4,32.9
		L106.9,98.9L106.9,98.9z M83.2,92.6L69.2,80l50.2-51.8l14,12.6L83.2,92.6L83.2,92.6z M40.8,78.5L80,119.4c11-2.4,3.4-2.5,15-5.6
		l15,16.4L0,242l12.6,14l113.1-111.5l15.8,17.2c-2.4,10.9-2.5,3.3-5.6,15l40.2,38.4l80-78.5l-39.2-40.9c-11,2.4-3.4,2.5-15,5.6
		l-46.4-47.9c2.4-10.9,2.4-3.3,5.5-15L120.9,0L40.8,78.5L40.8,78.5z"/>
</g>
</svg>
