<?xml version="1.0" encoding="utf-8"?>
<!-- Generator: Adobe Illustrator 23.0.5, SVG Export Plug-In . SVG Version: 6.00 Build 0)  -->
<svg version="1.1" id="Layer_1" xmlns="http://www.w3.org/2000/svg" xmlns:xlink="http://www.w3.org/1999/xlink" x="0px" y="0px"
	 viewBox="0 0 197.7 256" style="enable-background:new 0 0 197.7 256;" xml:space="preserve">
<style type="text/css">
	.st0{fill-rule:evenodd;clip-rule:evenodd;fill:#FFFFFF;}
</style>
<g>
	<path class="st0" d="M133.4,36.1l23,21.5l-23,0.7V36.1L133.4,36.1z M0,248.9h92.1C75,223.3,69.6,229.8,19,229.8V20.2h95.3v57.2
		h57.2c0,50.6-6.5,55.9,19.1,73.1c0-18-0.1-36,0-54c0.1-26.6,4.5-29.7-10.2-43.8C113.2-12.1,162.2,1.1,0,1.1V248.9L0,248.9z"/>
	<path class="st0" d="M108.8,208.4l-13-10.8l43.2-44.7l10.8,13L108.8,208.4L108.8,208.4z M118,128.7c2.9,12.2,19,1.8-29.8,46.8
		c-13.2,12.2-1.4,4.8-18.3,0.3L59.8,188l57,58.4l13-10.8c-2.7-11.2-2.7-3.6-5.9-15.3l12.2-10.1l47.4,45.7l14.1-12.7l-45.9-47.6
		l10.8-12.9c11.2,2.7,3.6,2.7,15.3,5.9l10.1-12.2l-57-58.4L118,128.7L118,128.7z"/>
</g>
</svg>
