<?xml version="1.0" encoding="utf-8"?>
<!-- Generator: Adobe Illustrator 23.0.5, SVG Export Plug-In . SVG Version: 6.00 Build 0)  -->
<svg version="1.1" id="Layer_1" xmlns="http://www.w3.org/2000/svg" xmlns:xlink="http://www.w3.org/1999/xlink" x="0px" y="0px"
	 viewBox="0 0 256 222.1" style="enable-background:new 0 0 256 222.1;" xml:space="preserve">
<style type="text/css">
	.st0{fill-rule:evenodd;clip-rule:evenodd;fill:#FFFFFF;}
</style>
<g>
	<path class="st0" d="M69.8,151.3c0-7.9,22.5-24.7,29.1-29.1c38.1,25.5,29.1,29.6,29.1,75.6H69.8V151.3L69.8,151.3z M0,116.4
		c8.1,0,18.7,0.6,26.4,0.2c18-1,33-20.9,45.5-33L128,34.9c10.6,7.1,69.8,57.4,69.8,66.9v96h-46.5v-34.9h29.1
		c-9.6-14.4-25.5-24.1-38.5-37.1c-8-8-12.6-9.7-20.4-17.4c-9.7-9.5-11.6-10.9-22.5-18.2c-23,15.4-45.5,40.5-61.1,52.4
		c-7.8,5.9-14.9,12.1-20.4,20.4h29.1c0,71.9-13.2,58.2,151.3,58.2c14.1,0,23.3-9.2,23.3-23.3v-81.5H256l-31.2-29.9
		c-6.8-6.6-9.4-7.2-16-13.1l-32.1-29c-6.2-5.9-9.7-10.6-16.2-15.8C148.7,19.3,138.4,6.9,128,0L0,116.4L0,116.4z"/>
</g>
</svg>
