<?xml version="1.0" encoding="utf-8"?>
<!-- Generator: Adobe Illustrator 23.0.5, SVG Export Plug-In . SVG Version: 6.00 Build 0)  -->
<svg version="1.1" id="Layer_1" xmlns="http://www.w3.org/2000/svg" xmlns:xlink="http://www.w3.org/1999/xlink" x="0px" y="0px"
	 viewBox="0 0 232.7 256" style="enable-background:new 0 0 232.7 256;" xml:space="preserve">
<style type="text/css">
	.st0{fill-rule:evenodd;clip-rule:evenodd;fill:#FFFFFF;}
</style>
<g>
	<path class="st0" d="M34.9,23.3h162.9v209.5H34.9V23.3L34.9,23.3z M0,23.3h11.6V256h209.5V23.3h11.6V0H0V23.3L0,23.3z"/>
	<polygon class="st0" points="58.2,116.4 104.7,116.4 104.7,93.1 58.2,93.1 	"/>
	<polygon class="st0" points="128,116.4 174.5,116.4 174.5,93.1 128,93.1 	"/>
	<polygon class="st0" points="58.2,162.9 104.7,162.9 104.7,139.6 58.2,139.6 	"/>
	<polygon class="st0" points="128,162.9 174.5,162.9 174.5,139.6 128,139.6 	"/>
	<polygon class="st0" points="58.2,69.8 104.7,69.8 104.7,46.5 58.2,46.5 	"/>
	<polygon class="st0" points="128,69.8 174.5,69.8 174.5,46.5 128,46.5 	"/>
	<polygon class="st0" points="58.2,209.5 104.7,209.5 104.7,186.2 58.2,186.2 	"/>
	<polygon class="st0" points="128,209.5 174.5,209.5 174.5,186.2 128,186.2 	"/>
</g>
</svg>
