<?xml version="1.0" encoding="utf-8"?>
<!-- Generator: Adobe Illustrator 23.0.5, SVG Export Plug-In . SVG Version: 6.00 Build 0)  -->
<svg version="1.1" id="Layer_1" xmlns="http://www.w3.org/2000/svg" xmlns:xlink="http://www.w3.org/1999/xlink" x="0px" y="0px"
	 viewBox="0 0 256 170.2" style="enable-background:new 0 0 256 170.2;" xml:space="preserve">
<style type="text/css">
	.st0{fill:#FFFFFF;}
</style>
<g>
	<path class="st0" d="M255.9,3c0-2.5-0.4-2.9-2.9-2.9c-83.3,0-166.6,0-249.9,0c-0.4,0-0.9,0-1.3,0c-1,0.2-1.5,0.7-1.7,1.7
		c0,0.4,0,0.7,0,1.1c0,29.6,0,59.3,0,88.9c0,0.6,0.3,1.3,0.4,1.9c85,0,169.9,0,254.9,0c0.2-0.6,0.5-1.3,0.5-1.9
		c0-14.4,0-28.7,0-43.1C255.9,33.5,255.9,18.2,255.9,3z M17.5,29c0-1,0-2.1,0-3.1V17c5.5,0,10.8-0.1,16.1,0.1c0.2,0,0.3,0,0.5,0.1
		h4.5l-2.1,2.1c0,0.2-0.1,0.3-0.2,0.4c-0.8,0.8-1.6,1.5-2.4,2.2l-2.3,2.3c-0.1,0.1-0.2,0.3-0.3,0.4c-0.4,0.4-0.7,0.8-1.1,1.2
		c-0.6,0.6-1.3,1.2-1.9,1.9c-1.2,1.2-2.4,2.3-3.6,3.5l-2,2c-0.9,1-1.8,2-2.8,3c-0.2,0.3-0.6,0.5-0.9,0.7l-1.5,1.5V29z M26.4,76.6
		c-2.9,0-5.8,0-8.9,0c0-3,0-5.9,0-8.8c0-1.1,0.1-2.1,0.4-2.9v-0.7l13.3-13.3c0.3-0.3,0.5-0.6,0.8-0.9c0.2-0.2,0.4-0.4,0.6-0.6
		l7.7-7.7c0.1-0.1,0.1-0.1,0.2-0.2l0,0L58,24.1c0.2-0.2,0.4-0.4,0.5-0.6c0.7-0.7,1.3-1.7,2.2-2.2l4.5-4.5h1.2c0.4-0.1,0.8,0,1.2,0
		h22.8L30.8,76.6H26.4z M105,53c-0.1,0.1-0.1,0.1-0.2,0.2c-1.4,1.3-2.8,2.6-4.2,4c-0.3,0.3-0.6,0.5-0.9,0.8
		c-0.8,0.8-1.6,1.5-2.3,2.3c-0.3,0.3-0.6,0.7-0.9,1c-0.4,0.5-0.9,1-1.4,1.4s-0.9,0.8-1.4,1.3c-0.7,0.6-1.3,1.3-2,1.9
		c-0.3,0.3-0.6,0.7-0.9,1c-0.5,0.5-1,1-1.5,1.5c-0.1,0.1-0.2,0.1-0.3,0.2L88.6,69c-1.2,1.4-2.5,2.7-3.7,4.1c-0.3,0.3-0.7,0.6-1,1
		c-0.5,0.5-1.1,0.9-1.5,1.4c-0.3,0.5-0.7,0.8-1.2,1L81,76.7H56l60.1-59.9H141l-2.3,2.3c0,0.2-0.3,0.7-0.5,0.9
		c-1.1,1.1-2.3,2.1-3.5,3.1l-1.1,1.1c-1.1,1.1-2.1,2.3-3.2,3.5c-0.4,0.4-0.9,0.7-1.3,1.1c-0.4,0.4-0.8,0.8-1.3,1.2
		c-0.5,0.6-1.1,1.1-1.6,1.7c-0.1,0.1-0.2,0.1-0.3,0.2c-1.3,1.3-2.5,2.7-3.8,4c-0.5,0.6-1.1,1.1-1.7,1.6c-0.4,0.4-0.7,0.7-1.1,1.1
		c-0.7,0.7-1.3,1.3-2,2c0,0-0.1,0-0.1,0.1c-1.2,1.3-2.4,2.6-3.7,3.9c-0.5,0.5-1.1,1-1.6,1.5c0,0-0.1,0.1-0.2,0.1l-0.3,0.3
		c-1.2,1.3-2.4,2.6-3.6,3.8c-0.4,0.4-0.8,0.8-1.1,1.2C106.2,51.9,105.6,52.4,105,53z M154.8,54.1c-0.5,0.5-1,1-1.5,1.5
		s-1,1.1-1.6,1.6c-0.1,0.1-0.2,0.1-0.3,0.2c-1.3,1.4-2.6,2.8-3.9,4.2c-0.4,0.4-0.8,0.8-1.2,1.1c-0.2,0.2-0.4,0.2-0.6,0.4
		c-1.3,1.4-2.6,2.8-3.9,4.2c-0.3,0.3-0.7,0.6-1,1c-0.6,0.5-1.1,1.1-1.7,1.6c-0.5,0.5-1,0.9-1.4,1.4c-0.4,0.4-0.9,0.9-1.3,1.4
		c-0.4,0.4-0.8,0.9-1.2,1.3c-0.5,0.5-1.2,0.8-1.6,1.4c-0.4,0.7-0.9,1.1-1.6,1.2l-0.1,0.1h-25L167,16.8h24.9l-2.1,2.1l0.1,0.1
		c0.1,0.1-0.4,0.7-0.7,1c-0.6,0.7-1.3,1.3-2,2c-0.3,0.3-0.7,0.6-1.1,0.9c-0.5,0.5-1,1-1.5,1.5c-0.6,0.5-1.1,1.1-1.7,1.6
		c-0.2,0.2-0.5,0.4-0.7,0.6c-0.8,0.8-1.5,1.6-2.3,2.3c-1.1,1.1-2.3,2.3-3.4,3.4c-0.8,0.8-1.6,1.6-2.3,2.3c-0.3,0.3-0.6,0.7-0.9,1.1
		c-0.1,0.1-0.1,0.3-0.2,0.4c-1.4,1.4-2.9,2.7-4.3,4.1c0,0-0.1,0-0.1,0.1c-1.3,1.4-2.7,2.8-4,4.3c-0.1,0.1-0.1,0.2-0.1,0.2
		c-1.3,1.2-2.6,2.4-3.9,3.6c-0.1,0.1-0.3,0.2-0.5,0.3c-1.3,1.4-2.7,2.9-4,4.3C155.6,53.5,155.2,53.8,154.8,54.1z M158.8,76.7
		l1.5-1.5c0.1-0.2,0.3-0.4,0.4-0.6c1.5-1.6,3.1-3.2,4.7-4.7c0.8-0.8,1.7-1.6,2.5-2.4l3.2-3.2c0.2-0.2,0.4-0.5,0.6-0.7
		c1.8-1.8,3.6-3.7,5.4-5.5c0.2-0.2,0.4-0.3,0.5-0.5l40-40.5h1.9c0.4-0.2,1-0.1,1.5,0h6.3c3.1,0,6.3,0,9.4,0c0.5,0,0.9,0,1.8,0h0.1
		v4.4l-9.1,9.1c0,0,0,0.1-0.1,0.1c-0.2,0.1-0.3,0.3-0.5,0.4l-45.6,45.6H158.8z M239.4,76.7h-0.7h-29.4l30.1-30.1L239.4,76.7
		L239.4,76.7z"/>
	<rect x="25.5" y="102" class="st0" width="17.5" height="68.2"/>
	<rect x="212.9" y="102" class="st0" width="17.5" height="68.2"/>
</g>
</svg>
