<?xml version="1.0" encoding="utf-8"?>
<!-- Generator: Adobe Illustrator 23.0.5, SVG Export Plug-In . SVG Version: 6.00 Build 0)  -->
<svg version="1.1" id="Layer_1" xmlns="http://www.w3.org/2000/svg" xmlns:xlink="http://www.w3.org/1999/xlink" x="0px" y="0px"
	 viewBox="0 0 256 247" style="enable-background:new 0 0 256 247;" xml:space="preserve">
<style type="text/css">
	.st0{fill-rule:evenodd;clip-rule:evenodd;fill:#FFFFFF;}
</style>
<g>
	<path class="st0" d="M29.4,79.4c4.8-6.5,82.9-55.9,85.3-55.9c3.7,0,80.3,49.1,85.3,55.9c-6.4,8.7-30.7,21.4-41.8,28.8
		c-49,32.9-34.5,35.3-87,0C60.1,100.8,35.8,88.1,29.4,79.4L29.4,79.4z M0,79.4v150h164.7c9.5,0,10.8-10.3,14.7-17.6H17.6V97
		c23.3,12.3,70,47.4,97,61.8c9.2-4.9,15.2-9.2,23.5-14.7l73.5-47v44.1h17.6c0-85.2,12.4-58.4-55.3-103.5L114.7,0
		c-11.1,5.9-18.1,11.5-28.8,18.2L27.1,56.5C12.2,66.4,0,69.2,0,79.4L0,79.4z"/>
	<polygon class="st0" points="179.3,247 200,247 244.1,158.8 223.5,158.8 	"/>
	<path class="st0" d="M229.4,223.5c0,20.2,26.5,20.2,26.5,0C255.8,207.5,229.4,207.5,229.4,223.5L229.4,223.5z"/>
	<path class="st0" d="M167.6,179.4c0,20.2,26.5,20.2,26.5,0C194.1,163.4,167.6,163.4,167.6,179.4L167.6,179.4z"/>
</g>
</svg>
