<?xml version="1.0" encoding="utf-8"?>
<!-- Generator: Adobe Illustrator 23.0.5, SVG Export Plug-In . SVG Version: 6.00 Build 0)  -->
<svg version="1.1" id="Layer_1" xmlns="http://www.w3.org/2000/svg" xmlns:xlink="http://www.w3.org/1999/xlink" x="0px" y="0px"
	 viewBox="0 0 256 256" style="enable-background:new 0 0 256 256;" xml:space="preserve">
<style type="text/css">
	.st0{fill-rule:evenodd;clip-rule:evenodd;fill:#FFFFFF;}
</style>
<g>
	<path class="st0" d="M19.7,59.1L55,22.2l41,39.4c-4.8,6.7-27,27.7-27,30.3c0,18.1,24.4,49.7,35.2,60c18.5,17.7,37.2,26.4,60,38.4
		L193,160l42.7,40.9c-6.1,9.5-15,17.7-24.6,26.5c-15,13.7-18.4,7.7-35.2,0.5c-28.7-12.4-45.4-24-67.6-40.8
		C72.9,160.3,46.3,121,27.4,81C23.1,72.2,22.8,65.9,19.7,59.1L19.7,59.1z M0,59.1c0,24.3,17.5,51.7,30.2,71.6
		c23.3,36.5,58.7,71.7,95.2,95.2c21.3,13.7,50.4,30.1,74.9,30.1c19.4,0,55.8-42.7,55.8-49.2c0-23-5.2-19.9-27.1-41.8
		c-20.2-20.2-36.3-48.3-68.1-0.8c-25.2-13.3-57.7-31.4-65.6-65.6c19.3-28.8,36-27.6,10.9-56.9c-6-7-6.5-9.1-13.3-16.2
		C83.6,15.8,72.2,0,55.8,0C36.2,0,0,39.3,0,59.1L0,59.1z"/>
</g>
</svg>
