<?xml version="1.0" encoding="utf-8"?>
<!-- Generator: Adobe Illustrator 23.0.5, SVG Export Plug-In . SVG Version: 6.00 Build 0)  -->
<svg version="1.1" id="Layer_1" xmlns="http://www.w3.org/2000/svg" xmlns:xlink="http://www.w3.org/1999/xlink" x="0px" y="0px"
	 viewBox="0 0 228.6 256" style="enable-background:new 0 0 228.6 256;" xml:space="preserve">
<style type="text/css">
	.st0{fill-rule:evenodd;clip-rule:evenodd;fill:#EB5202;}
</style>
<g>
	<path class="st0" d="M167,235.5v-41h41C206.4,214.8,187.4,233.8,167,235.5L167,235.5z M149.5,235.5c-43.9-3.7-63.1-73.3-14.2-96.3
		c40.3-18.9,70.9,14.6,72.8,37.7h-58.6V235.5L149.5,235.5z M87.9,179.8c0,24.5,1.7,18,2.9,32.2H17.6V18.6h87.9v52.7h52.7v44
		c-21.8,0-37.2,7.6-49.1,18.3C99.9,142.1,87.9,162.8,87.9,179.8L87.9,179.8z M123.1,33.3l21.2,19.8l-21.2,0.7L123.1,33.3L123.1,33.3
		z M0,229.6h96.7c12.8,0,16.1,26.4,67.4,26.4c35.9,0,64.5-30.8,64.5-76.2c0-28.4-26.6-59.4-52.7-61.5c0-55.3,6.3-54.5-13.9-74
		C105.2-10.7,148,1,0,1V229.6L0,229.6z"/>
</g>
</svg>
