<?xml version="1.0" encoding="utf-8"?>
<!-- Generator: Adobe Illustrator 23.0.5, SVG Export Plug-In . SVG Version: 6.00 Build 0)  -->
<svg version="1.1" id="Layer_1" xmlns="http://www.w3.org/2000/svg" xmlns:xlink="http://www.w3.org/1999/xlink" x="0px" y="0px"
	 viewBox="0 0 256 256" style="enable-background:new 0 0 256 256;" xml:space="preserve">
<style type="text/css">
	.st0{fill-rule:evenodd;clip-rule:evenodd;fill:#EB5202;}
</style>
<g>
	<path class="st0" d="M0,234.7h88.9c2-8.6,3.7-14.3,7.1-21.3H21.3v-192h160v53.3l21.2,4.1L202.7,0H0V234.7L0,234.7z"/>
	<path class="st0" d="M149.3,149.3c0-40.8,64-40.8,64,0C213.3,190.2,149.3,190.2,149.3,149.3L149.3,149.3z M128,142.2
		c0,34.1,1.7,25.7,17.8,49.8c-13,3.5-18.4,10.4-25.6,20.7c-12.2,17.5-13.6,24.7-13.6,43.3H128c4.4-18.9,3.9-24,16.6-36.7
		c24.6-24.6,75.1-27.3,90,36.7H256c0-17.5-1.6-27.3-13.6-43.3c-6.7-9-13.8-17.6-25.5-20.7c16.1-24.1,17.8-15.7,17.8-49.8
		C234.7,80.8,128,80.8,128,142.2L128,142.2z"/>
	<polygon class="st0" points="42.7,149.3 85.3,149.3 85.3,128 42.7,128 	"/>
	<polygon class="st0" points="42.7,192 85.3,192 85.3,170.7 42.7,170.7 	"/>
	<polygon class="st0" points="42.7,64 85.3,64 85.3,42.7 42.7,42.7 	"/>
	<polygon class="st0" points="117.3,64 160,64 160,42.7 117.3,42.7 	"/>
	<polygon class="st0" points="42.7,106.7 85.3,106.7 85.3,85.3 42.7,85.3 	"/>
	<path class="st0" d="M117.3,106.7c14.7-5.3-0.8,2.3,11.8-9.5c9.4-8.8,5.1-0.9,13.1-11.8h-24.9L117.3,106.7L117.3,106.7z"/>
</g>
</svg>
