<?xml version="1.0" encoding="utf-8"?>
<!-- Generator: Adobe Illustrator 23.0.5, SVG Export Plug-In . SVG Version: 6.00 Build 0)  -->
<svg version="1.1" id="Layer_1" xmlns="http://www.w3.org/2000/svg" xmlns:xlink="http://www.w3.org/1999/xlink" x="0px" y="0px"
	 viewBox="0 0 256 159.3" style="enable-background:new 0 0 256 159.3;" xml:space="preserve">
<style type="text/css">
	.st0{fill-rule:evenodd;clip-rule:evenodd;fill:#EB5202;}
</style>
<g>
	<path class="st0" d="M192.2,95.5c0-2.3,3.5-9.1,5.3-10.9c19.9-20.2,41,26,10.7,26c-2.3,0-8.2-1.7-10.7-4.2
		C195.7,104.7,192.2,97.8,192.2,95.5L192.2,95.5z M32.7,95.5c0-17,31-22.8,31,0S32.7,112.5,32.7,95.5L32.7,95.5z M96.5,47.7
		c0-41.1,63.8-41.1,63.8,0S96.5,88.8,96.5,47.7L96.5,47.7z M80.6,45c0,33.6,11.5,26,15.9,42.5c-8.1,1.9-10.2,4.1-15.9,8
		c-1.1-51.3-89.5-39.7-55.8,23.9c-15,4-23.9,20.3-23.9,39.9h15.9c4.8-20.4,12.7-31.3,37.2-31.9c-4,17.2-5.3,7.9-5.3,31.9h15.9
		c7-84.2,120.6-84.2,127.6,0h15.9c0-23.9-1.3-14.7-5.3-31.9c24.5,0.5,32.5,11.5,37.2,31.9h16c0-19.6-8.9-35.9-23.9-39.9
		c33.2-62.7-51.8-74.5-55.8-26.6c-8.2-1.9-7.7-3.4-15.9-5.3c4.4-16.5,15.9-8.9,15.9-42.5C176.3-15,80.6-15,80.6,45L80.6,45z"/>
</g>
</svg>
