<?xml version="1.0" encoding="utf-8"?>
<!-- Generator: Adobe Illustrator 23.0.5, SVG Export Plug-In . SVG Version: 6.00 Build 0)  -->
<svg version="1.1" id="Layer_1" xmlns="http://www.w3.org/2000/svg" xmlns:xlink="http://www.w3.org/1999/xlink" x="0px" y="0px"
	 viewBox="0 0 256 256" style="enable-background:new 0 0 256 256;" xml:space="preserve">
<style type="text/css">
	.st0{fill-rule:evenodd;clip-rule:evenodd;fill:#EB5202;}
</style>
<g>
	<path class="st0" d="M21.3,128.1c0-108,154.4-149.7,202.2-42.6C271.4,192.7,133.8,283.7,53,202.9C36.3,186.2,21.3,151.2,21.3,128.1
		L21.3,128.1z M0,114c0,40.1,3.6,75.6,38.1,107.3c81.7,75.3,217.3,19.7,217.3-86.1c0-39-7.1-69.4-36.3-98.5c-49-49-133.9-49-182.8,0
		C22,51,0,87.1,0,114L0,114z"/>
	<path class="st0" d="M138.3,135.2c0-25.3,1.9-40.4,3.5-60.3C186.1,85.3,174.8,126.7,138.3,135.2L138.3,135.2z M117,135.2
		c-25.8-2.1-31.9-26.9-31.9-28.4c0-31.8,23.7-18.3,7.1-49.6c-41,9.5-42.5,97.2,24.8,102.8v42.6h21.3v-46.1
		c72.1-1.6,68.6-102.8,7.1-102.8C108,53.7,117,97.8,117,135.2L117,135.2z"/>
</g>
</svg>
