<?xml version="1.0" encoding="utf-8"?>
<!-- Generator: Adobe Illustrator 23.0.5, SVG Export Plug-In . SVG Version: 6.00 Build 0)  -->
<svg version="1.1" id="Layer_1" xmlns="http://www.w3.org/2000/svg" xmlns:xlink="http://www.w3.org/1999/xlink" x="0px" y="0px"
	 viewBox="0 0 256 256" style="enable-background:new 0 0 256 256;" xml:space="preserve">
<style type="text/css">
	.st0{fill-rule:evenodd;clip-rule:evenodd;fill:#EB5202;}
</style>
<g>
	<path class="st0" d="M26.2,128c8.7-16.5,23.1-36.1,37.8-46.6c65.2-46.7,132-17.5,165.9,46.6C181.3,219.8,75.7,221.6,26.2,128
		L26.2,128z M0,128c0,15.4,32.4,52.5,42.9,61.8c47.5,42.4,122.6,42.4,170.2,0c10.5-9.3,42.9-46.4,42.9-61.8
		c0-19.9-55.1-93.1-116.4-93.1c-39.2,0-64.6,2.7-96.7,31.3C32.4,75.5,0,112.6,0,128L0,128z"/>
	<path class="st0" d="M104.7,128c0-29.4,46.5-29.4,46.5,0C151.3,157.4,104.7,157.4,104.7,128L104.7,128z M81.5,122.2
		c0,70.4,93.1,70.4,93.1,0c0-21.1-20.2-40.7-52.4-40.7C104,81.5,81.5,104,81.5,122.2L81.5,122.2z"/>
	<path class="st0" d="M0,23.3v34.9h23.3V23.3h34.9V0H23.3C9.2,0,0,9.2,0,23.3L0,23.3z"/>
	<path class="st0" d="M0,232.7C0,246.8,9.2,256,23.3,256h34.9v-23.3H23.3v-34.9H0V232.7L0,232.7z"/>
	<path class="st0" d="M197.8,23.3h34.9v34.9H256V23.3C256,9.2,246.8,0,232.7,0h-34.9L197.8,23.3L197.8,23.3z"/>
	<path class="st0" d="M232.7,232.7h-34.9V256h34.9c14.1,0,23.3-9.2,23.3-23.3v-34.9h-23.3L232.7,232.7L232.7,232.7z"/>
</g>
</svg>
